<mxfile host="app.diagrams.net" modified="2022-06-13T13:54:33.654Z" agent="5.0 (X11; Linux x86_64) AppleWebKit/537.36 (KHTML, like Gecko) Chrome/102.0.5005.99 Safari/537.36" etag="n-6fMdMJAD5AyMmuQPxM" version="19.0.3" type="github">
  <diagram id="NS9PakC079DA7yDAWkTM" name="Page-1">
    <mxGraphModel dx="1312" dy="752" grid="1" gridSize="10" guides="1" tooltips="1" connect="1" arrows="1" fold="1" page="1" pageScale="1" pageWidth="850" pageHeight="1100" math="0" shadow="0">
      <root>
        <mxCell id="0" />
        <mxCell id="1" parent="0" />
        <mxCell id="tG0htZnA58LBnUAMzmmx-7" style="edgeStyle=orthogonalEdgeStyle;rounded=0;orthogonalLoop=1;jettySize=auto;html=1;exitX=1;exitY=0.5;exitDx=0;exitDy=0;entryX=0;entryY=0.5;entryDx=0;entryDy=0;" edge="1" parent="1" source="tG0htZnA58LBnUAMzmmx-1" target="tG0htZnA58LBnUAMzmmx-3">
          <mxGeometry relative="1" as="geometry" />
        </mxCell>
        <mxCell id="tG0htZnA58LBnUAMzmmx-1" value="Get code from the repository" style="rounded=1;whiteSpace=wrap;html=1;fillColor=#e1d5e7;strokeColor=#9673a6;" vertex="1" parent="1">
          <mxGeometry x="360" y="190" width="120" height="60" as="geometry" />
        </mxCell>
        <mxCell id="tG0htZnA58LBnUAMzmmx-6" style="edgeStyle=orthogonalEdgeStyle;rounded=0;orthogonalLoop=1;jettySize=auto;html=1;exitX=1;exitY=0.5;exitDx=0;exitDy=0;entryX=0;entryY=0.5;entryDx=0;entryDy=0;" edge="1" parent="1" source="tG0htZnA58LBnUAMzmmx-2" target="tG0htZnA58LBnUAMzmmx-1">
          <mxGeometry relative="1" as="geometry" />
        </mxCell>
        <mxCell id="tG0htZnA58LBnUAMzmmx-2" value="Create Ubuntu VM" style="rounded=1;whiteSpace=wrap;html=1;fillColor=#e1d5e7;strokeColor=#9673a6;" vertex="1" parent="1">
          <mxGeometry x="200" y="190" width="120" height="60" as="geometry" />
        </mxCell>
        <mxCell id="tG0htZnA58LBnUAMzmmx-8" style="edgeStyle=orthogonalEdgeStyle;rounded=0;orthogonalLoop=1;jettySize=auto;html=1;exitX=1;exitY=0.5;exitDx=0;exitDy=0;entryX=0;entryY=0.5;entryDx=0;entryDy=0;" edge="1" parent="1" source="tG0htZnA58LBnUAMzmmx-3" target="tG0htZnA58LBnUAMzmmx-4">
          <mxGeometry relative="1" as="geometry" />
        </mxCell>
        <mxCell id="tG0htZnA58LBnUAMzmmx-3" value="Configure Python and needed packages" style="rounded=1;whiteSpace=wrap;html=1;fillColor=#e1d5e7;strokeColor=#9673a6;" vertex="1" parent="1">
          <mxGeometry x="520" y="190" width="120" height="60" as="geometry" />
        </mxCell>
        <mxCell id="tG0htZnA58LBnUAMzmmx-9" style="edgeStyle=orthogonalEdgeStyle;rounded=0;orthogonalLoop=1;jettySize=auto;html=1;exitX=1;exitY=0.5;exitDx=0;exitDy=0;entryX=0;entryY=0.5;entryDx=0;entryDy=0;" edge="1" parent="1" source="tG0htZnA58LBnUAMzmmx-4" target="tG0htZnA58LBnUAMzmmx-5">
          <mxGeometry relative="1" as="geometry" />
        </mxCell>
        <mxCell id="tG0htZnA58LBnUAMzmmx-4" value="Connect to Azure" style="rounded=1;whiteSpace=wrap;html=1;fillColor=#e1d5e7;strokeColor=#9673a6;" vertex="1" parent="1">
          <mxGeometry x="120" y="290" width="120" height="60" as="geometry" />
        </mxCell>
        <mxCell id="tG0htZnA58LBnUAMzmmx-11" style="edgeStyle=orthogonalEdgeStyle;rounded=0;orthogonalLoop=1;jettySize=auto;html=1;exitX=1;exitY=0.5;exitDx=0;exitDy=0;entryX=0;entryY=0.5;entryDx=0;entryDy=0;" edge="1" parent="1" source="tG0htZnA58LBnUAMzmmx-5" target="tG0htZnA58LBnUAMzmmx-10">
          <mxGeometry relative="1" as="geometry" />
        </mxCell>
        <mxCell id="tG0htZnA58LBnUAMzmmx-5" value="Create Docker environment on Azure" style="rounded=1;whiteSpace=wrap;html=1;fillColor=#e1d5e7;strokeColor=#9673a6;" vertex="1" parent="1">
          <mxGeometry x="281" y="290" width="120" height="60" as="geometry" />
        </mxCell>
        <mxCell id="tG0htZnA58LBnUAMzmmx-10" value="Submit training experiment to Azure" style="rounded=1;whiteSpace=wrap;html=1;fillColor=#ffe6cc;strokeColor=#d79b00;" vertex="1" parent="1">
          <mxGeometry x="440" y="290" width="120" height="60" as="geometry" />
        </mxCell>
        <mxCell id="tG0htZnA58LBnUAMzmmx-13" style="edgeStyle=orthogonalEdgeStyle;rounded=0;orthogonalLoop=1;jettySize=auto;html=1;entryX=0;entryY=0.5;entryDx=0;entryDy=0;" edge="1" parent="1" source="tG0htZnA58LBnUAMzmmx-12" target="tG0htZnA58LBnUAMzmmx-2">
          <mxGeometry relative="1" as="geometry" />
        </mxCell>
        <mxCell id="tG0htZnA58LBnUAMzmmx-12" value="Code is pushed to release branch" style="rounded=1;whiteSpace=wrap;html=1;fillColor=#fff2cc;strokeColor=#d6b656;" vertex="1" parent="1">
          <mxGeometry x="40" y="190" width="120" height="60" as="geometry" />
        </mxCell>
      </root>
    </mxGraphModel>
  </diagram>
</mxfile>
